<svg xmlns="http://www.w3.org/2000/svg" xmlns:xlink="http://www.w3.org/1999/xlink" width="1587" zoomAndPan="magnify" viewBox="0 0 1190.25 1190.249948" height="1587" preserveAspectRatio="xMidYMid meet" version="1.0"><defs><g/><clipPath id="5718358ee4"><path d="M 0 0 L 1189.5 0 L 1189.5 1189.5 L 0 1189.5 Z M 0 0 " clip-rule="nonzero"/></clipPath><clipPath id="f6de583e5a"><path d="M 0 0 L 1189.199219 0 L 1189.199219 1189.199219 L 0 1189.199219 Z M 0 0 " clip-rule="nonzero"/></clipPath><clipPath id="f807212857"><path d="M 345.878906 546.25 L 634.269531 546.25 L 634.269531 854 L 345.878906 854 Z M 345.878906 546.25 " clip-rule="nonzero"/></clipPath><clipPath id="bd2f7ed1a5"><path d="M 490.074219 546.25 C 410.4375 546.25 345.878906 615.171875 345.878906 700.195312 C 345.878906 785.214844 410.4375 854.140625 490.074219 854.140625 C 569.710938 854.140625 634.269531 785.214844 634.269531 700.195312 C 634.269531 615.171875 569.710938 546.25 490.074219 546.25 Z M 490.074219 546.25 " clip-rule="nonzero"/></clipPath><clipPath id="fe7b6928f6"><path d="M 602.835938 244.886719 L 727.03125 244.886719 L 727.03125 369.082031 L 602.835938 369.082031 Z M 602.835938 244.886719 " clip-rule="nonzero"/></clipPath><clipPath id="caae33b9ce"><path d="M 664.933594 244.886719 C 630.640625 244.886719 602.835938 272.6875 602.835938 306.984375 C 602.835938 341.277344 630.640625 369.082031 664.933594 369.082031 C 699.230469 369.082031 727.03125 341.277344 727.03125 306.984375 C 727.03125 272.6875 699.230469 244.886719 664.933594 244.886719 Z M 664.933594 244.886719 " clip-rule="nonzero"/></clipPath><clipPath id="66e891d5d8"><path d="M 0 286 L 1090 286 L 1090 1189.5 L 0 1189.5 Z M 0 286 " clip-rule="nonzero"/></clipPath></defs><g clip-path="url(#5718358ee4)"><path fill="#ffffff" d="M 0 0 L 1189.5 0 L 1189.5 1189.5 L 0 1189.5 Z M 0 0 " fill-opacity="1" fill-rule="nonzero"/></g><g clip-path="url(#f6de583e5a)"><path fill="#e1e1e1" d="M 0 0 L 1189.199219 0 L 1189.199219 1189.199219 L 0 1189.199219 Z M 0 0 " fill-opacity="1" fill-rule="nonzero"/></g><g fill="#000000" fill-opacity="1"><g transform="translate(406.67416, 810.880661)"><g><path d="M 104.3125 -233.171875 C 73.925781 -193.429688 58.734375 -150.476562 58.734375 -104.3125 C 58.734375 -49.382812 81.816406 -6.722656 127.984375 23.671875 C 154.867188 41.785156 185.40625 50.84375 219.59375 50.84375 C 253.78125 50.84375 283.4375 44.125 308.5625 30.6875 C 355.894531 6.132812 382.484375 -35.066406 388.328125 -92.921875 C 388.910156 -97.015625 389.203125 -101.101562 389.203125 -105.1875 C 389.203125 -126.8125 383.210938 -150.1875 371.234375 -175.3125 C 359.253906 -200.445312 339.820312 -223.53125 312.9375 -244.5625 L 155.15625 -369.046875 C 120.675781 -395.929688 103.4375 -430.703125 103.4375 -473.359375 C 103.4375 -516.015625 117.171875 -552.097656 144.640625 -581.609375 C 172.109375 -611.117188 209.21875 -625.875 255.96875 -625.875 C 279.34375 -625.875 304.765625 -622.953125 332.234375 -617.109375 L 367.296875 -617.109375 L 369.046875 -509.296875 L 360.28125 -509.296875 C 359.695312 -537.335938 349.613281 -559.394531 330.03125 -575.46875 C 310.457031 -591.539062 285.914062 -599.578125 256.40625 -599.578125 C 226.894531 -599.578125 202.203125 -589.785156 182.328125 -570.203125 C 162.460938 -550.628906 152.53125 -525.503906 152.53125 -494.828125 C 152.53125 -464.148438 165.382812 -438.585938 191.09375 -418.140625 L 353.265625 -290.15625 C 417.546875 -239.3125 449.6875 -177.945312 449.6875 -106.0625 C 449.6875 -52.300781 428.359375 -6.132812 385.703125 32.4375 C 348.878906 65.75 299.789062 82.40625 238.4375 82.40625 C 201.03125 82.40625 167.71875 75.390625 138.5 61.359375 C 83.570312 35.648438 50.554688 -8.175781 39.453125 -70.125 C 37.691406 -79.476562 36.8125 -91.3125 36.8125 -105.625 C 36.8125 -119.945312 40.898438 -139.523438 49.078125 -164.359375 C 57.265625 -189.191406 73.046875 -214.175781 96.421875 -239.3125 Z M 104.3125 -233.171875 "/></g></g></g><g clip-path="url(#f807212857)"><g clip-path="url(#bd2f7ed1a5)"><path fill="#e1e1e1" d="M 345.878906 546.25 L 634.269531 546.25 L 634.269531 853.789062 L 345.878906 853.789062 Z M 345.878906 546.25 " fill-opacity="1" fill-rule="nonzero"/></g></g><g clip-path="url(#fe7b6928f6)"><g clip-path="url(#caae33b9ce)"><path fill="#000000" d="M 602.835938 244.886719 L 727.03125 244.886719 L 727.03125 369.082031 L 602.835938 369.082031 Z M 602.835938 244.886719 " fill-opacity="1" fill-rule="nonzero"/></g></g><g clip-path="url(#66e891d5d8)"><path stroke-linecap="butt" transform="matrix(0, -3.375241, 3.375241, 0, 61.017644, 1045.823984)" fill="none" stroke-linejoin="miter" d="M 101.433655 119.68298 C 98.884069 122.370288 95.9896 124.351627 92.750248 125.626999 C 106.568705 127.590979 117.078371 132.501508 124.280402 140.358586 C 131.482434 148.180943 135.084028 157.74276 135.084028 169.046351 C 135.084028 182.727086 129.570533 193.804998 118.543544 202.282402 C 107.550116 210.725085 93.09513 214.945849 75.176272 214.945849 C 57.256256 214.945849 43.214435 210.535284 33.048495 201.714155 C 22.883712 192.891869 17.800742 180.434426 17.800742 164.341826 C 17.800742 163.515496 17.800742 162.670649 17.800742 161.809599 L 20.126965 161.396434 C 22.951994 182.416923 31.704841 196.045579 46.384348 202.282402 L 46.384348 79.055096 C 46.108904 75.230137 44.662249 72.093787 42.043223 69.647203 C 39.424197 67.165899 36.287847 65.925247 32.63533 65.925247 L 30.103104 65.925247 L 30.103104 63.806185 L 65.665377 63.806185 C 78.931791 63.806185 89.545616 66.838376 97.505695 72.903915 C 105.500494 78.968296 109.497894 86.911016 109.497894 96.732073 C 109.497894 106.519568 106.809428 114.169485 101.433655 119.68298 Z M 60.134523 70.577692 L 60.134523 206.05528 C 64.785811 206.779766 70.144224 207.140851 76.209763 207.140851 C 89.786339 207.140851 100.348084 203.505694 107.894999 196.234223 C 115.441913 188.963909 119.214792 179.538656 119.214792 167.96078 C 119.214792 161.75752 118.043579 156.261384 115.699997 151.471217 C 113.391134 146.647488 110.461945 142.890812 106.913588 140.203504 C 97.608697 133.036192 84.497365 129.451957 67.577278 129.451957 C 67.404836 129.451957 67.319194 129.451957 67.319194 129.451957 L 67.112033 127.5389 C 67.249755 127.5389 67.319194 127.5389 67.319194 127.5389 C 74.521226 127.5389 80.689767 125.179115 85.823659 120.458387 C 90.992271 115.70294 93.577735 108.396749 93.577735 98.542129 C 93.577735 79.898785 83.342355 70.577692 62.87391 70.577692 Z M 60.134523 70.577692 " stroke="#e1e1e1" stroke-width="15.879675" stroke-opacity="1" stroke-miterlimit="4"/></g><g fill="#000000" fill-opacity="1"><g transform="translate(776.568769, 986.440835)"><g><path d="M -311.5625 -282.984375 C -302.507812 -274.410156 -295.84375 -264.644531 -291.5625 -253.6875 C -284.894531 -300.375 -268.335938 -335.863281 -241.890625 -360.15625 C -215.453125 -384.457031 -183.175781 -396.609375 -145.0625 -396.609375 C -98.851562 -396.609375 -61.457031 -378.03125 -32.875 -340.875 C -4.289062 -303.71875 10 -254.882812 10 -194.375 C 10 -133.875 -4.882812 -86.472656 -34.65625 -52.171875 C -64.4375 -17.867188 -106.476562 -0.71875 -160.78125 -0.71875 C -163.644531 -0.71875 -166.503906 -0.71875 -169.359375 -0.71875 L -170.796875 -8.578125 C -99.804688 -18.109375 -53.832031 -47.644531 -32.875 -97.1875 L -448.78125 -97.1875 C -461.632812 -96.238281 -472.226562 -91.359375 -480.5625 -82.546875 C -488.90625 -73.734375 -493.078125 -63.128906 -493.078125 -50.734375 L -493.078125 -42.171875 L -500.234375 -42.171875 L -500.234375 -162.21875 C -500.234375 -207 -489.988281 -242.847656 -469.5 -269.765625 C -449.007812 -296.679688 -422.207031 -310.140625 -389.09375 -310.140625 C -355.988281 -310.140625 -330.144531 -301.085938 -311.5625 -282.984375 Z M -477.359375 -143.640625 L -20.015625 -143.640625 C -17.628906 -159.359375 -16.4375 -177.460938 -16.4375 -197.953125 C -16.4375 -243.679688 -28.703125 -279.289062 -53.234375 -304.78125 C -77.773438 -330.269531 -109.578125 -343.015625 -148.640625 -343.015625 C -169.597656 -343.015625 -188.175781 -339.082031 -204.375 -331.21875 C -220.570312 -323.363281 -233.195312 -313.476562 -242.25 -301.5625 C -266.550781 -270.125 -278.703125 -225.820312 -278.703125 -168.65625 C -278.703125 -168.175781 -278.703125 -167.9375 -278.703125 -167.9375 L -285.125 -167.21875 C -285.125 -167.695312 -285.125 -167.9375 -285.125 -167.9375 C -285.125 -192.226562 -293.101562 -213.066406 -309.0625 -230.453125 C -325.03125 -247.847656 -349.6875 -256.546875 -383.03125 -256.546875 C -445.914062 -256.546875 -477.359375 -222.007812 -477.359375 -152.9375 Z M -477.359375 -143.640625 "/></g></g></g><path fill="#e1e1e1" d="M 58.96875 885.269531 L 1062.027344 885.269531 C 1069.804688 885.269531 1077.261719 888.359375 1082.761719 893.859375 C 1088.261719 899.355469 1091.351562 906.816406 1091.351562 914.59375 L 1091.351562 973.238281 C 1091.351562 981.015625 1088.261719 988.472656 1082.761719 993.972656 C 1077.261719 999.472656 1069.804688 1002.5625 1062.027344 1002.5625 L 58.96875 1002.5625 C 42.773438 1002.5625 29.644531 989.433594 29.644531 973.238281 L 29.644531 914.59375 C 29.644531 898.398438 42.773438 885.269531 58.96875 885.269531 Z M 58.96875 885.269531 " fill-opacity="1" fill-rule="nonzero"/><g fill="#000000" fill-opacity="1"><g transform="translate(98.94431, 961.497827)"><g><path d="M 17.25 0.53125 C 12.363281 0.53125 8.550781 -0.5625 5.8125 -2.75 C 3.070312 -4.945312 1.503906 -8.160156 1.109375 -12.390625 L 8.28125 -13.4375 C 8.976562 -8.425781 12.085938 -5.921875 17.609375 -5.921875 C 19.992188 -5.921875 21.847656 -6.398438 23.171875 -7.359375 C 24.503906 -8.316406 25.171875 -9.660156 25.171875 -11.390625 C 25.171875 -12.953125 24.503906 -14.132812 23.171875 -14.9375 C 21.847656 -15.738281 19.71875 -16.492188 16.78125 -17.203125 C 14.039062 -17.859375 11.691406 -18.644531 9.734375 -19.5625 C 7.785156 -20.488281 6.289062 -21.734375 5.25 -23.296875 C 4.21875 -24.859375 3.703125 -26.929688 3.703125 -29.515625 C 3.703125 -31.984375 4.335938 -34.175781 5.609375 -36.09375 C 6.878906 -38.007812 8.628906 -39.515625 10.859375 -40.609375 C 13.085938 -41.703125 15.671875 -42.25 18.609375 -42.25 C 22.472656 -42.25 25.640625 -41.234375 28.109375 -39.203125 C 30.578125 -37.171875 32.023438 -34.375 32.453125 -30.8125 L 25.765625 -29.703125 C 24.941406 -33.765625 22.4375 -35.796875 18.25 -35.796875 C 16.21875 -35.796875 14.566406 -35.265625 13.296875 -34.203125 C 12.023438 -33.148438 11.390625 -31.765625 11.390625 -30.046875 C 11.390625 -28.328125 12.015625 -27.003906 13.265625 -26.078125 C 14.515625 -25.160156 16.644531 -24.351562 19.65625 -23.65625 C 22.351562 -23.03125 24.679688 -22.296875 26.640625 -21.453125 C 28.597656 -20.609375 30.113281 -19.441406 31.1875 -17.953125 C 32.269531 -16.472656 32.8125 -14.441406 32.8125 -11.859375 C 32.8125 -9.429688 32.15625 -7.285156 30.84375 -5.421875 C 29.53125 -3.566406 27.707031 -2.109375 25.375 -1.046875 C 23.050781 0.00390625 20.34375 0.53125 17.25 0.53125 Z M 17.25 0.53125 "/></g></g></g><g fill="#000000" fill-opacity="1"><g transform="translate(177.989104, 961.497827)"><g><path d="M 31.984375 -41.671875 L 39.5625 -41.671875 L 39.609375 -19.484375 C 39.648438 -15.335938 38.972656 -11.765625 37.578125 -8.765625 C 36.191406 -5.773438 34.175781 -3.476562 31.53125 -1.875 C 28.894531 -0.269531 25.71875 0.53125 22 0.53125 C 16.0625 0.53125 11.59375 -0.960938 8.59375 -3.953125 C 5.601562 -6.953125 4.109375 -11.523438 4.109375 -17.671875 L 4.109375 -41.671875 L 11.734375 -41.671875 L 11.734375 -18.25 C 11.734375 -14.0625 12.582031 -11.03125 14.28125 -9.15625 C 15.988281 -7.28125 18.523438 -6.34375 21.890625 -6.34375 C 25.296875 -6.34375 27.847656 -7.4375 29.546875 -9.625 C 31.253906 -11.8125 32.085938 -15.21875 32.046875 -19.84375 Z M 31.984375 -41.671875 "/></g></g></g><g fill="#000000" fill-opacity="1"><g transform="translate(266.359847, 961.497827)"><g><path d="M 30.75 -41.671875 L 38.375 -41.671875 L 23.1875 0 L 12.5625 0 L -0.0625 -41.671875 L 8.046875 -41.671875 L 18.3125 -6.390625 Z M 30.75 -41.671875 "/></g></g></g><g fill="#000000" fill-opacity="1"><g transform="translate(347.868091, 961.497827)"><g><path d="M 37.203125 -7.28125 L 38.96875 -1.34375 C 38.1875 -0.757812 37.226562 -0.300781 36.09375 0.03125 C 34.957031 0.363281 33.765625 0.53125 32.515625 0.53125 C 28.128906 0.53125 24.6875 -1.40625 22.1875 -5.28125 L 16.140625 -14.546875 C 15.515625 -15.523438 14.867188 -16.210938 14.203125 -16.609375 C 13.535156 -17.003906 12.8125 -17.203125 12.03125 -17.203125 L 11.734375 -17.203125 L 11.734375 0 L 4.28125 0 L 4.28125 -41.671875 L 17.25 -41.671875 C 22.53125 -41.671875 26.53125 -40.570312 29.25 -38.375 C 31.96875 -36.1875 33.328125 -33.175781 33.328125 -29.34375 C 33.328125 -27.03125 32.816406 -25.039062 31.796875 -23.375 C 30.785156 -21.71875 29.398438 -20.398438 27.640625 -19.421875 C 25.878906 -18.441406 23.882812 -17.816406 21.65625 -17.546875 C 22.832031 -16.921875 23.910156 -15.863281 24.890625 -14.375 L 28.171875 -9.5 C 29.035156 -8.25 29.847656 -7.390625 30.609375 -6.921875 C 31.367188 -6.453125 32.335938 -6.21875 33.515625 -6.21875 C 34.878906 -6.21875 36.109375 -6.570312 37.203125 -7.28125 Z M 16.71875 -35.453125 L 11.734375 -35.453125 L 11.734375 -23.1875 L 16.375 -23.1875 C 19.582031 -23.1875 21.945312 -23.671875 23.46875 -24.640625 C 25 -25.617188 25.765625 -27.1875 25.765625 -29.34375 C 25.765625 -33.414062 22.75 -35.453125 16.71875 -35.453125 Z M 16.71875 -35.453125 "/></g></g></g><g fill="#000000" fill-opacity="1"><g transform="translate(429.317715, 961.497827)"><g><path d="M 22.828125 0.53125 C 18.597656 0.570312 14.976562 -0.21875 11.96875 -1.84375 C 8.957031 -3.46875 6.648438 -5.828125 5.046875 -8.921875 C 3.441406 -12.015625 2.640625 -15.734375 2.640625 -20.078125 C 2.640625 -24.410156 3.5 -28.25 5.21875 -31.59375 C 6.945312 -34.945312 9.382812 -37.5625 12.53125 -39.4375 C 15.675781 -41.3125 19.398438 -42.25 23.703125 -42.25 C 27.546875 -42.25 30.910156 -41.390625 33.796875 -39.671875 C 36.691406 -37.953125 38.941406 -35.554688 40.546875 -32.484375 C 42.148438 -29.410156 42.953125 -25.800781 42.953125 -21.65625 C 42.953125 -17.15625 42.082031 -13.25 40.34375 -9.9375 C 38.601562 -6.632812 36.21875 -4.0625 33.1875 -2.21875 C 30.15625 -0.382812 26.703125 0.53125 22.828125 0.53125 Z M 22.59375 -6.34375 C 25.0625 -6.34375 27.242188 -6.945312 29.140625 -8.15625 C 31.035156 -9.375 32.519531 -11.113281 33.59375 -13.375 C 34.675781 -15.644531 35.21875 -18.40625 35.21875 -21.65625 C 35.21875 -25.84375 34.160156 -29.1875 32.046875 -31.6875 C 29.929688 -34.195312 27.09375 -35.453125 23.53125 -35.453125 C 20.988281 -35.453125 18.726562 -34.804688 16.75 -33.515625 C 14.78125 -32.222656 13.226562 -30.441406 12.09375 -28.171875 C 10.957031 -25.898438 10.390625 -23.238281 10.390625 -20.1875 C 10.390625 -15.769531 11.472656 -12.359375 13.640625 -9.953125 C 15.816406 -7.546875 18.800781 -6.34375 22.59375 -6.34375 Z M 22.59375 -6.34375 "/></g></g></g><g fill="#000000" fill-opacity="1"><g transform="translate(519.565373, 961.497827)"><g/></g></g><g fill="#000000" fill-opacity="1"><g transform="translate(578.492024, 961.497827)"><g><path d="M 4.28125 0 L 4.28125 -41.671875 L 18.140625 -41.671875 C 23.421875 -41.671875 27.476562 -40.703125 30.3125 -38.765625 C 33.144531 -36.828125 34.5625 -34 34.5625 -30.28125 C 34.5625 -28.289062 34.070312 -26.492188 33.09375 -24.890625 C 32.113281 -23.285156 30.726562 -22.03125 28.9375 -21.125 C 30.851562 -20.382812 32.378906 -19.203125 33.515625 -17.578125 C 34.648438 -15.953125 35.21875 -14.0625 35.21875 -11.90625 C 35.21875 -8.269531 33.863281 -5.375 31.15625 -3.21875 C 28.457031 -1.070312 24.765625 0 20.078125 0 Z M 18.25 -35.453125 L 11.734375 -35.453125 L 11.734375 -24.125 L 18.140625 -24.125 C 21.109375 -24.125 23.316406 -24.582031 24.765625 -25.5 C 26.210938 -26.414062 26.9375 -27.894531 26.9375 -29.9375 C 26.9375 -31.8125 26.238281 -33.195312 24.84375 -34.09375 C 23.457031 -35 21.257812 -35.453125 18.25 -35.453125 Z M 11.734375 -6.21875 L 19.890625 -6.21875 C 22.273438 -6.21875 24.160156 -6.6875 25.546875 -7.625 C 26.941406 -8.5625 27.640625 -10.050781 27.640625 -12.09375 C 27.640625 -15.882812 25 -17.78125 19.71875 -17.78125 L 11.734375 -17.78125 Z M 11.734375 -6.21875 "/></g></g></g><g fill="#000000" fill-opacity="1"><g transform="translate(660.293566, 961.497827)"><g><path d="M 4.28125 0 L 4.28125 -41.671875 L 11.90625 -41.671875 L 11.90625 0 Z M 4.28125 0 "/></g></g></g><g fill="#000000" fill-opacity="1"><g transform="translate(721.155752, 961.497827)"><g><path d="M 17.25 0.53125 C 12.363281 0.53125 8.550781 -0.5625 5.8125 -2.75 C 3.070312 -4.945312 1.503906 -8.160156 1.109375 -12.390625 L 8.28125 -13.4375 C 8.976562 -8.425781 12.085938 -5.921875 17.609375 -5.921875 C 19.992188 -5.921875 21.847656 -6.398438 23.171875 -7.359375 C 24.503906 -8.316406 25.171875 -9.660156 25.171875 -11.390625 C 25.171875 -12.953125 24.503906 -14.132812 23.171875 -14.9375 C 21.847656 -15.738281 19.71875 -16.492188 16.78125 -17.203125 C 14.039062 -17.859375 11.691406 -18.644531 9.734375 -19.5625 C 7.785156 -20.488281 6.289062 -21.734375 5.25 -23.296875 C 4.21875 -24.859375 3.703125 -26.929688 3.703125 -29.515625 C 3.703125 -31.984375 4.335938 -34.175781 5.609375 -36.09375 C 6.878906 -38.007812 8.628906 -39.515625 10.859375 -40.609375 C 13.085938 -41.703125 15.671875 -42.25 18.609375 -42.25 C 22.472656 -42.25 25.640625 -41.234375 28.109375 -39.203125 C 30.578125 -37.171875 32.023438 -34.375 32.453125 -30.8125 L 25.765625 -29.703125 C 24.941406 -33.765625 22.4375 -35.796875 18.25 -35.796875 C 16.21875 -35.796875 14.566406 -35.265625 13.296875 -34.203125 C 12.023438 -33.148438 11.390625 -31.765625 11.390625 -30.046875 C 11.390625 -28.328125 12.015625 -27.003906 13.265625 -26.078125 C 14.515625 -25.160156 16.644531 -24.351562 19.65625 -23.65625 C 22.351562 -23.03125 24.679688 -22.296875 26.640625 -21.453125 C 28.597656 -20.609375 30.113281 -19.441406 31.1875 -17.953125 C 32.269531 -16.472656 32.8125 -14.441406 32.8125 -11.859375 C 32.8125 -9.429688 32.15625 -7.285156 30.84375 -5.421875 C 29.53125 -3.566406 27.707031 -2.109375 25.375 -1.046875 C 23.050781 0.00390625 20.34375 0.53125 17.25 0.53125 Z M 17.25 0.53125 "/></g></g></g><g fill="#000000" fill-opacity="1"><g transform="translate(800.200511, 961.497827)"><g><path d="M 50.359375 -41.671875 L 57.625 -41.671875 L 45.546875 0 L 36.859375 0 L 29.28125 -31.8125 L 20.25 0 L 11.5 0 L 1.171875 -41.671875 L 8.859375 -41.671875 L 16.375 -9.796875 L 25.296875 -41.671875 L 34.15625 -41.671875 L 41.609375 -9.984375 Z M 50.359375 -41.671875 "/></g></g></g><g fill="#000000" fill-opacity="1"><g transform="translate(902.589458, 961.497827)"><g><path d="M -0.59375 0 L 17.203125 -41.671875 L 23.65625 -41.671875 L 40.734375 0 L 32.984375 0 L 29.21875 -9.5 L 11.03125 -9.5 L 7.15625 0 Z M 13.671875 -15.90625 L 26.765625 -15.90625 L 20.3125 -32.28125 Z M 13.671875 -15.90625 "/></g></g></g><g fill="#000000" fill-opacity="1"><g transform="translate(987.616948, 961.497827)"><g><path d="M 17.25 0.53125 C 12.363281 0.53125 8.550781 -0.5625 5.8125 -2.75 C 3.070312 -4.945312 1.503906 -8.160156 1.109375 -12.390625 L 8.28125 -13.4375 C 8.976562 -8.425781 12.085938 -5.921875 17.609375 -5.921875 C 19.992188 -5.921875 21.847656 -6.398438 23.171875 -7.359375 C 24.503906 -8.316406 25.171875 -9.660156 25.171875 -11.390625 C 25.171875 -12.953125 24.503906 -14.132812 23.171875 -14.9375 C 21.847656 -15.738281 19.71875 -16.492188 16.78125 -17.203125 C 14.039062 -17.859375 11.691406 -18.644531 9.734375 -19.5625 C 7.785156 -20.488281 6.289062 -21.734375 5.25 -23.296875 C 4.21875 -24.859375 3.703125 -26.929688 3.703125 -29.515625 C 3.703125 -31.984375 4.335938 -34.175781 5.609375 -36.09375 C 6.878906 -38.007812 8.628906 -39.515625 10.859375 -40.609375 C 13.085938 -41.703125 15.671875 -42.25 18.609375 -42.25 C 22.472656 -42.25 25.640625 -41.234375 28.109375 -39.203125 C 30.578125 -37.171875 32.023438 -34.375 32.453125 -30.8125 L 25.765625 -29.703125 C 24.941406 -33.765625 22.4375 -35.796875 18.25 -35.796875 C 16.21875 -35.796875 14.566406 -35.265625 13.296875 -34.203125 C 12.023438 -33.148438 11.390625 -31.765625 11.390625 -30.046875 C 11.390625 -28.328125 12.015625 -27.003906 13.265625 -26.078125 C 14.515625 -25.160156 16.644531 -24.351562 19.65625 -23.65625 C 22.351562 -23.03125 24.679688 -22.296875 26.640625 -21.453125 C 28.597656 -20.609375 30.113281 -19.441406 31.1875 -17.953125 C 32.269531 -16.472656 32.8125 -14.441406 32.8125 -11.859375 C 32.8125 -9.429688 32.15625 -7.285156 30.84375 -5.421875 C 29.53125 -3.566406 27.707031 -2.109375 25.375 -1.046875 C 23.050781 0.00390625 20.34375 0.53125 17.25 0.53125 Z M 17.25 0.53125 "/></g></g></g></svg>